Coordinates
version=1
nRows=13
nColumns=40
inDegrees=yes

Units are S.I. units (second, meters, Newtons, ...)
Angles are in degrees.

endheader
time	pelvis_tilt	pelvis_list	pelvis_rotation	pelvis_tx	pelvis_ty	pelvis_tz	hip_flexion_r	hip_adduction_r	hip_rotation_r	knee_angle_r	knee_angle_r_beta	ankle_angle_r	subtalar_angle_r	mtp_angle_r	hip_flexion_l	hip_adduction_l	hip_rotation_l	knee_angle_l	knee_angle_l_beta	ankle_angle_l	subtalar_angle_l	mtp_angle_l	lumbar_extension	lumbar_bending	lumbar_rotation	arm_flex_r	arm_add_r	arm_rot_r	elbow_flex_r	pro_sup_r	wrist_flex_r	wrist_dev_r	arm_flex_l	arm_add_l	arm_rot_l	elbow_flex_l	pro_sup_l	wrist_flex_l	wrist_dev_l
     50.61000000	     -3.20102258	     -4.80869022	     10.36420074	      1.05143871	      0.92196330	      0.52538051	      5.58387833	      3.67503218	    -17.46203085	     18.53139646	     18.53139646	     17.41651159	     -6.89641870	     -2.80863159	     26.71558113	     -9.91805212	      0.71288008	     18.83738651	     18.83738651	      1.69017158	     -4.24238298	      0.89641768	     -8.89667540	      5.04594346	      2.74120345	     44.34391013	    -19.52677171	     -9.55011999	     72.48689947	     44.96876689	      0.00000000	      0.00000000	    -21.29404093	     -9.51869095	     15.25503979	     35.14608424	     43.67044560	      0.00000000	      0.00000000
     50.63071429	     -3.29481986	     -4.87312430	     10.48357779	      1.05127006	      0.92144797	      0.52144142	      5.35724323	      3.52891188	    -17.47053678	     18.50995882	     18.50995882	     17.63008880	     -6.97789572	     -2.53325686	     26.43426444	     -9.71582563	      0.58331271	     18.64747912	     18.64747912	      1.09852865	     -4.58650766	     -0.91585459	     -8.87843562	      4.89635208	      2.81216229	     45.29101580	    -19.69075988	     -9.26330372	     73.76787784	     44.95099585	      0.00000000	      0.00000000	    -20.50965012	     -9.86329600	     16.14979198	     35.49254620	     43.70588782	      0.00000000	      0.00000000
     50.65142857	     -3.50407223	     -4.88248966	     10.59193357	      1.05110035	      0.92102960	      0.51723149	      5.18480670	      3.29573141	    -17.50469047	     18.37073835	     18.37073835	     17.69685273	     -7.05211254	     -2.48840779	     26.39642233	     -9.43628737	      0.51216277	     18.80229753	     18.80229753	      1.24000163	     -4.70556188	     -1.07414545	     -8.66983579	      4.64881503	      2.81323565	     46.24225609	    -19.63871523	     -9.24279755	     74.13424907	     44.94338369	      0.00000000	      0.00000000	    -19.67763141	    -10.01947493	     16.12313916	     35.72696689	     43.72561028	      0.00000000	      0.00000000
     50.67214286	     -3.53648519	     -4.91297311	     10.66043447	      1.05096399	      0.92088942	      0.51283547	      4.80345063	      3.11390599	    -17.49738598	     18.19415983	     18.19415983	     17.76000210	     -7.08134217	     -2.37250087	     26.32393616	     -9.19967739	      0.58874245	     19.26190730	     19.26190730	      1.37363789	     -5.17396583	     -1.50230833	     -8.76212351	      4.53056523	      2.72885431	     47.44588032	    -19.50688443	     -9.07867917	     74.94904345	     44.92061091	      0.00000000	      0.00000000	    -18.85263525	    -10.19098234	     16.22594740	     35.93830939	     43.74464340	      0.00000000	      0.00000000
     50.69285714	     -3.64801176	     -4.91464241	     10.66947033	      1.05084323	      0.92084626	      0.50820542	      4.44040546	      2.88183365	    -17.47010886	     17.90387905	     17.90387905	     17.75082517	     -7.02807420	     -2.23020627	     26.34254534	     -8.90807591	      0.71612344	     19.77611790	     19.77611790	      1.55705204	     -5.69687620	     -1.86165185	     -8.73860349	      4.36372536	      2.73465801	     48.47856706	    -19.49071636	     -8.89607485	     75.63157774	     44.90039162	      0.00000000	      0.00000000	    -18.03332855	    -10.46261880	     16.26408411	     36.18010170	     43.76769388	      0.00000000	      0.00000000
     50.71357143	     -3.88498717	     -4.83860737	     10.67106724	      1.05069990	      0.92084837	      0.50340107	      4.18228378	      2.53241164	    -17.46114290	     17.58446440	     17.58446440	     17.68314349	     -6.99066292	     -2.10175498	     26.41944319	     -8.51135458	      0.76990030	     20.17957326	     20.17957326	      1.79276187	     -6.01062402	     -2.08040252	     -8.53535968	      4.06478514	      2.75870739	     49.29646745	    -19.42079090	     -8.77413596	     76.02728710	     44.88816098	      0.00000000	      0.00000000	    -17.13926901	    -10.77438913	     16.20103611	     36.44618726	     43.79283633	      0.00000000	      0.00000000
     50.73428571	     -4.04147337	     -4.79262579	     10.60787413	      1.05056289	      0.92098234	      0.49845149	      3.81896308	      2.22169274	    -17.41647670	     17.21864504	     17.21864504	     17.58631375	     -6.85169135	     -1.97100807	     26.49513188	     -8.14743613	      0.88158084	     20.74454421	     20.74454421	      2.13863464	     -6.51769332	     -2.29678061	     -8.45249596	      3.87851976	      2.86011429	     50.24779406	    -19.40217072	     -8.62677574	     76.48927726	     44.87370744	      0.00000000	      0.00000000	    -16.28622335	    -11.12142545	     16.12405316	     36.73139370	     43.81953594	      0.00000000	      0.00000000
     50.75500000	     -4.04373148	     -4.93052436	     10.54470500	      1.05045656	      0.92129740	      0.49335474	      3.17660579	      2.14150881	    -17.56991682	     16.57162446	     16.57162446	     17.40546813	     -6.32503232	     -1.83328204	     26.53924109	     -7.89874145	      1.45624550	     21.46368127	     21.46368127	      2.56969857	     -7.67590483	     -2.21045023	     -8.52674746	      3.99306861	      3.05810001	     51.04197846	    -19.79983006	     -8.02299491	     77.45577743	     44.83421416	      0.00000000	      0.00000000	    -15.58016868	    -11.48631605	     16.11009700	     37.36790806	     43.86304351	      0.00000000	      0.00000000
     50.77571429	     -4.15760508	     -4.92166685	     10.38344153	      1.05025226	      0.92161600	      0.48830346	      2.79230245	      1.82845875	    -17.61558231	     16.23309088	     16.23309088	     17.22029048	     -5.92416671	     -1.80488823	     26.53318520	     -7.56531331	      1.63381379	     21.96392059	     21.96392059	      3.05369992	     -8.29834881	     -2.09360192	     -8.50374202	      3.88216586	      3.31074674	     51.80113425	    -20.06358353	     -7.60243898	     78.07998176	     44.81160688	      0.00000000	      0.00000000	    -14.82573251	    -11.91049758	     16.02816418	     37.96167339	     43.91172189	      0.00000000	      0.00000000
     50.79642857	     -4.37770858	     -4.88728104	     10.16257276	      1.04995866	      0.92189886	      0.48329023	      2.59403671	      1.45663839	    -17.52894890	     16.01178045	     16.01178045	     17.00365754	     -5.71348522	     -1.72580773	     26.54664893	     -7.24259141	      1.54674994	     22.29043871	     22.29043871	      3.46102278	     -8.62212570	     -2.18631264	     -8.34256991	      3.74176757	      3.46422090	     52.48478245	    -19.97834799	     -7.45510506	     78.35703047	     44.80258744	      0.00000000	      0.00000000	    -14.04428872	    -12.33813222	     15.89528672	     38.25870711	     43.94379164	      0.00000000	      0.00000000
     50.81714286	     -4.42111835	     -4.96242367	      9.92370015	      1.04960634	      0.92236740	      0.47829894	      2.22153288	      1.20706691	    -17.58958839	     15.77149770	     15.77149770	     16.74578183	     -5.18166441	     -1.77575403	     26.45096454	     -7.04730548	      1.58900790	     22.72502346	     22.72502346	      4.00824872	     -9.10354628	     -2.04781862	     -8.40737419	      3.79490207	      3.71686895	     53.25777295	    -20.13921740	     -7.17154247	     78.73761540	     44.79000630	      0.00000000	      0.00000000	    -13.32399597	    -12.70357876	     15.72575917	     38.77822438	     43.99189232	      0.00000000	      0.00000000
     50.83785714	     -4.63138615	     -5.00445531	      9.64073760	      1.04911942	      0.92278920	      0.47343302	      2.12364764	      0.87673289	    -17.54228398	     15.67816875	     15.67816875	     16.43020519	     -4.87381888	     -1.74997647	     26.37673789	     -6.83974811	      1.41449527	     22.86695218	     22.86695218	      4.42133554	     -9.32388640	     -2.04653707	     -8.27120800	      3.73925968	      3.81409722	     53.69294986	    -20.01182802	     -6.98438372	     78.93604244	     44.78177077	      0.00000000	      0.00000000	    -12.55132723	    -13.11670719	     15.56308556	     39.08856448	     44.02844152	      0.00000000	      0.00000000
     50.85857143	     -4.78148681	     -5.06560089	      9.31820833	      1.04848431	      0.92334401	      0.46860965	      2.03559114	      0.54131454	    -17.52840335	     15.68662973	     15.68662973	     16.09649656	     -4.43768423	     -1.79519190	     26.21484270	     -6.68205236	      1.17451442	     22.95638965	     22.95638965	      4.86414193	     -9.48084425	     -1.99494307	     -8.25281606	      3.75446356	      3.92071615	     54.12429576	    -19.90899165	     -6.78462445	     79.12418747	     44.77442615	      0.00000000	      0.00000000	    -11.75467060	    -13.46842118	     15.38431258	     39.40613226	     44.06995033	      0.00000000	      0.00000000
